<svg xmlns="http://www.w3.org/2000/svg" width="29" height="28" viewBox="0 0 29 28"><defs><linearGradient id="shs8a" x1="21.61" x2="7.78" y1="27.21" y2=".78" gradientUnits="userSpaceOnUse"><stop offset="0" stop-color="#4bbafa"/><stop offset="1" stop-color="#23e1c8"/></linearGradient></defs><g><g><path fill="#00aeff" d="M28.269 13.963c0 .572-.476 1.043-1.054 1.043H21.95a4.082 4.082 0 0 1-3.975 3.06 4.152 4.152 0 0 1-4.01-3.06H1.87a1.054 1.054 0 0 1-1.054-1.043c0-.571.476-1.043 1.054-1.043h12.06a4.142 4.142 0 0 1 4.01-3.06 4.15 4.15 0 0 1 4.01 3.06h5.265c.578 0 1.054.472 1.054 1.043zm-8.29.034a1.997 1.997 0 0 0-2.005-1.983c-1.087 0-2.005.873-2.005 1.983 0 1.076.884 1.984 2.005 1.984a1.998 1.998 0 0 0 2.005-1.984zm8.018 9.114c0 .572-.476 1.043-1.053 1.043H15.63a4.142 4.142 0 0 1-4.01 3.06 4.15 4.15 0 0 1-4.009-3.06H1.835a1.053 1.053 0 0 1-1.053-1.043c0-.571.476-1.043 1.053-1.043h5.776a4.143 4.143 0 0 1 4.01-3.06 4.151 4.151 0 0 1 4.009 3.06h11.314c.577 0 1.053.472 1.053 1.043zm-14.372.034a1.998 1.998 0 0 0-2.005-1.985c-1.087 0-1.97.875-2.004 1.951v.067c0 1.077.917 1.951 2.004 1.951a1.998 1.998 0 0 0 2.005-1.984zM28.608 4.882c0 .573-.475 1.044-1.053 1.044H15.63a4.142 4.142 0 0 1-4.01 3.059 4.152 4.152 0 0 1-4.009-3.06H2.175a1.054 1.054 0 0 1-1.053-1.043c0-.572.476-1.042 1.053-1.042h5.436a4.142 4.142 0 0 1 4.01-3.06 4.152 4.152 0 0 1 4.009 3.06h11.925c.578 0 1.053.436 1.053 1.042zm-14.983 0a1.998 1.998 0 0 0-2.005-1.984c-1.087 0-2.004.875-2.004 1.984 0 1.077.883 1.984 2.004 1.984 1.122 0 2.04-.907 2.005-1.984z"/><path fill="url(#shs8a)" d="M28.269 13.963c0 .572-.476 1.043-1.054 1.043H21.95a4.082 4.082 0 0 1-3.975 3.06 4.152 4.152 0 0 1-4.01-3.06H1.87a1.054 1.054 0 0 1-1.054-1.043c0-.571.476-1.043 1.054-1.043h12.06a4.142 4.142 0 0 1 4.01-3.06 4.15 4.15 0 0 1 4.01 3.06h5.265c.578 0 1.054.472 1.054 1.043zm-8.29.034a1.997 1.997 0 0 0-2.005-1.983c-1.087 0-2.005.873-2.005 1.983 0 1.076.884 1.984 2.005 1.984a1.998 1.998 0 0 0 2.005-1.984zm8.018 9.114c0 .572-.476 1.043-1.053 1.043H15.63a4.142 4.142 0 0 1-4.01 3.06 4.15 4.15 0 0 1-4.009-3.06H1.835a1.053 1.053 0 0 1-1.053-1.043c0-.571.476-1.043 1.053-1.043h5.776a4.143 4.143 0 0 1 4.01-3.06 4.151 4.151 0 0 1 4.009 3.06h11.314c.577 0 1.053.472 1.053 1.043zm-14.372.034a1.998 1.998 0 0 0-2.005-1.985c-1.087 0-1.97.875-2.004 1.951v.067c0 1.077.917 1.951 2.004 1.951a1.998 1.998 0 0 0 2.005-1.984zM28.608 4.882c0 .573-.475 1.044-1.053 1.044H15.63a4.142 4.142 0 0 1-4.01 3.059 4.152 4.152 0 0 1-4.009-3.06H2.175a1.054 1.054 0 0 1-1.053-1.043c0-.572.476-1.042 1.053-1.042h5.436a4.142 4.142 0 0 1 4.01-3.06 4.152 4.152 0 0 1 4.009 3.06h11.925c.578 0 1.053.436 1.053 1.042zm-14.983 0a1.998 1.998 0 0 0-2.005-1.984c-1.087 0-2.004.875-2.004 1.984 0 1.077.883 1.984 2.004 1.984 1.122 0 2.04-.907 2.005-1.984z"/></g></g></svg>