<svg xmlns="http://www.w3.org/2000/svg" width="32" height="32" viewBox="0 0 32 32"><defs><linearGradient id="e6aya" x1="24" x2="8" y1="32" y2="0" gradientUnits="userSpaceOnUse"><stop offset="0" stop-color="#4bbafa"/><stop offset="1" stop-color="#23e1c8"/></linearGradient></defs><g><g><path fill="#9e70fc" d="M28.715 4.425a13.085 13.085 0 0 1 3.285 8.7c0 .66-.541 1.203-1.199 1.203H18.937a1.207 1.207 0 0 1-1.198-1.204V1.202c0-.66.54-1.205 1.198-1.205 3.749 0 7.304 1.632 9.778 4.428zm-8.58 7.534h9.391a10.622 10.622 0 0 0-2.59-5.903 10.674 10.674 0 0 0-6.801-3.573zM0 17.667C0 9.746 6.415 3.299 14.3 3.299c.656 0 1.197.543 1.197 1.203v11.922h11.865c.657 0 1.198.545 1.198 1.205 0 7.922-6.415 14.368-14.3 14.368C6.416 31.997 0 25.59 0 17.667zm2.357-.038c0 6.602 5.334 11.96 11.904 11.96 6.183 0 11.246-4.737 11.826-10.757H14.26a1.207 1.207 0 0 1-1.198-1.203V5.745c-5.99.62-10.667 5.709-10.706 11.884z"/><path fill="url(#e6aya)" d="M28.715 4.425a13.085 13.085 0 0 1 3.285 8.7c0 .66-.541 1.203-1.199 1.203H18.937a1.207 1.207 0 0 1-1.198-1.204V1.202c0-.66.54-1.205 1.198-1.205 3.749 0 7.304 1.632 9.778 4.428zm-8.58 7.534h9.391a10.622 10.622 0 0 0-2.59-5.903 10.674 10.674 0 0 0-6.801-3.573zM0 17.667C0 9.746 6.415 3.299 14.3 3.299c.656 0 1.197.543 1.197 1.203v11.922h11.865c.657 0 1.198.545 1.198 1.205 0 7.922-6.415 14.368-14.3 14.368C6.416 31.997 0 25.59 0 17.667zm2.357-.038c0 6.602 5.334 11.96 11.904 11.96 6.183 0 11.246-4.737 11.826-10.757H14.26a1.207 1.207 0 0 1-1.198-1.203V5.745c-5.99.62-10.667 5.709-10.706 11.884z"/></g></g></svg>