<svg xmlns="http://www.w3.org/2000/svg" width="30" height="30" viewBox="0 0 30 30"><g><g><path fill="#fff" d="M14.622 2.72c-3.91 0-4.373.014-5.917.084-1.428.065-2.203.303-2.72.503A4.538 4.538 0 0 0 4.303 4.4c-.512.512-.83.998-1.095 1.68-.2.515-.44 1.289-.505 2.713-.07 1.54-.085 2.002-.085 5.903s.015 4.365.085 5.905c.066 1.424.304 2.197.505 2.712a4.523 4.523 0 0 0 1.095 1.68c.512.511 1 .828 1.684 1.093.516.2 1.291.439 2.719.503 1.544.07 2.007.085 5.917.085 3.91 0 4.373-.015 5.917-.085 1.428-.064 2.203-.303 2.72-.503a4.536 4.536 0 0 0 1.683-1.093c.512-.51.83-.998 1.095-1.68.2-.515.44-1.288.505-2.712.07-1.54.085-2.004.085-5.905 0-3.9-.015-4.363-.085-5.903-.066-1.424-.304-2.198-.505-2.713a4.531 4.531 0 0 0-1.095-1.68c-.513-.511-1-.828-1.684-1.093-.516-.2-1.291-.438-2.719-.503-1.544-.07-2.007-.085-5.917-.085 0 0 3.91 0 0 0zm0-2.633c3.977 0 4.476.016 6.037.088 1.559.07 2.623.318 3.555.679.963.373 1.78.872 2.593 1.684a7.174 7.174 0 0 1 1.69 2.588c.362.93.609 1.992.68 3.547.071 1.558.088 2.055.088 6.023 0 3.969-.017 4.465-.088 6.025-.071 1.554-.319 2.616-.68 3.546a7.156 7.156 0 0 1-1.69 2.587 7.197 7.197 0 0 1-2.593 1.686c-.932.361-1.996.608-3.555.679-1.561.07-2.06.088-6.037.088s-4.476-.017-6.038-.088c-1.558-.07-2.623-.318-3.554-.679a7.198 7.198 0 0 1-2.594-1.686 7.156 7.156 0 0 1-1.689-2.587c-.362-.93-.61-1.992-.68-3.546-.072-1.56-.088-2.056-.088-6.025 0-3.968.016-4.465.088-6.023.07-1.555.318-2.617.68-3.547a7.174 7.174 0 0 1 1.69-2.588A7.177 7.177 0 0 1 5.03.854c.931-.36 1.996-.608 3.554-.68 1.562-.07 2.061-.087 6.038-.087zm7.52 14.61c0 4.143-3.367 7.503-7.52 7.503s-7.52-3.36-7.52-7.504c0-4.143 3.367-7.502 7.52-7.502s7.52 3.359 7.52 7.502zm-2.639 0c0-2.69-2.185-4.87-4.881-4.87a4.875 4.875 0 0 0-4.881 4.87 4.875 4.875 0 0 0 4.881 4.87 4.875 4.875 0 0 0 4.881-4.87zm4.693-7.8c0 .97-.787 1.754-1.757 1.754-.97 0-1.758-.785-1.758-1.754 0-.968.787-1.753 1.758-1.753.97 0 1.757.785 1.757 1.753z"/></g></g></svg>