<svg xmlns="http://www.w3.org/2000/svg" width="19" height="31" viewBox="0 0 19 31"><g><g><path fill="#fff" d="M1.71 8.042C1.71 3.77 5.189.295 9.466.295c4.279 0 7.757 3.475 7.757 7.747 0 4.27-3.478 7.742-7.757 7.742-4.277 0-7.756-3.472-7.756-7.742zm4.545 0a3.212 3.212 0 0 0 6.423 0c0-1.769-1.44-3.208-3.212-3.208a3.214 3.214 0 0 0-3.211 3.208zm10.686 18.39a2.265 2.265 0 0 1 0 3.209 2.275 2.275 0 0 1-3.213 0l-4.263-4.256-4.26 4.256a2.27 2.27 0 0 1-1.607.665c-.581 0-1.162-.222-1.606-.665a2.267 2.267 0 0 1-.001-3.209l4.336-4.33a14.582 14.582 0 0 1-4.504-1.862 2.267 2.267 0 0 1-.712-3.13 2.273 2.273 0 0 1 3.133-.713 9.86 9.86 0 0 0 10.444 0 2.274 2.274 0 0 1 3.133.713 2.268 2.268 0 0 1-.712 3.13 14.557 14.557 0 0 1-4.505 1.862z"/></g></g></svg>