<svg xmlns="http://www.w3.org/2000/svg" width="32" height="19" viewBox="0 0 32 19"><g><g><path fill="#fff" d="M15.617 18.703h1.892s.571-.062.864-.378c.268-.292.26-.837.26-.837s-.037-2.554 1.141-2.93c1.162-.37 2.654 2.47 4.235 3.561 1.196.826 2.104.645 2.104.645l4.228-.06s2.212-.138 1.163-1.885c-.086-.143-.61-1.294-3.144-3.659-2.651-2.476-2.296-2.075.898-6.356 1.945-2.607 2.722-4.2 2.48-4.88-.232-.65-1.663-.48-1.663-.48l-4.76.03s-.353-.048-.615.11c-.256.154-.42.514-.42.514s-.754 2.016-1.758 3.733c-2.12 3.62-2.968 3.812-3.314 3.587-.806-.525-.605-2.105-.605-3.228 0-3.509.53-4.972-1.03-5.35-.518-.126-.899-.21-2.222-.222-1.7-.018-3.137.004-3.95.406-.542.267-.96.86-.705.895.314.042 1.027.193 1.404.71.488.669.471 2.167.471 2.167s.28 4.13-.654 4.643c-.642.352-1.522-.366-3.412-3.651-.968-1.682-1.7-3.542-1.7-3.542s-.14-.347-.392-.534c-.305-.224-.731-.297-.731-.297l-4.524.03s-.68.02-.929.317c-.222.264-.017.81-.017.81s3.541 8.334 7.551 12.534c3.678 3.851 7.854 3.597 7.854 3.597z"/></g></g></svg>