<svg xmlns="http://www.w3.org/2000/svg" width="25" height="30" viewBox="0 0 25 30"><g><g><path fill="#fff" d="M21.267 20.602v.746h-1.482v-.746c0-.745.248-1.118.743-1.118.492 0 .74.373.74 1.118zm3.312.498c0 1.884-.003 3.88-.43 5.712a3.08 3.08 0 0 1-2.652 2.373c-3.043.335-6.122.337-9.188.335-3.066.002-6.145 0-9.187-.335A3.078 3.078 0 0 1 .47 26.812C.043 24.98.043 22.984.043 21.1s.005-3.881.432-5.712a3.08 3.08 0 0 1 2.651-2.373c3.043-.335 6.122-.336 9.188-.335 3.066-.001 6.145 0 9.188.335a3.08 3.08 0 0 1 2.652 2.373c.427 1.83.425 3.828.425 5.712zM7.04 15.513H1.87v1.522h1.745v9.291h1.649v-9.291H7.04zm4.48 2.755h-1.484v6.16c-.329.457-.64.683-.937.683-.198 0-.31-.116-.347-.342-.014-.047-.014-.226-.014-.568v-5.933H7.257v6.373c0 .569.05.953.131 1.198.148.408.477.6.955.6.545 0 1.105-.326 1.694-.992v.88h1.484zm5.633 2.432c0-.763-.05-1.296-.15-1.62-.198-.603-.594-.91-1.185-.91-.545 0-1.053.294-1.532.875v-3.532h-1.483v10.813h1.483v-.78c.495.603 1.005.893 1.532.893.59 0 .987-.307 1.185-.907.1-.341.15-.879.15-1.623zm5.596.195c0-.861-.148-1.49-.459-1.898-.415-.551-1.005-.827-1.749-.827-.757 0-1.347.276-1.776.827-.315.408-.458 1.037-.458 1.898v2.822c0 .857.161 1.493.476 1.896.43.55 1.02.826 1.795.826.774 0 1.383-.29 1.793-.875.18-.258.297-.55.347-.875.013-.146.031-.47.031-.94v-.215h-1.513c0 .587-.019.911-.033.99-.084.392-.297.587-.662.587-.51 0-.757-.373-.757-1.119v-1.428h2.965zm-7.079-.31v3.438c0 .728-.217 1.088-.645 1.088-.244 0-.491-.116-.739-.36v-4.91c.248-.241.495-.357.739-.357.428 0 .645.373.645 1.1zM7.745 6.795v4.422H6.084V6.795c-.15-.785-.482-1.933-1.015-3.456-.35-1.013-.715-2.03-1.065-3.044h1.748l1.179 4.29L8.063.294h1.68zm5.972 3.702c-.415.554-.997.833-1.747.833-.747 0-1.33-.279-1.744-.833-.319-.407-.47-1.049-.47-1.914V5.732c0-.87.151-1.506.47-1.918.414-.555.997-.834 1.744-.834.75 0 1.332.279 1.747.834.313.412.465 1.048.465 1.918v2.851c0 .865-.152 1.507-.465 1.914zm-1.033-5.061c0-.753-.232-1.127-.714-1.127-.484 0-.716.374-.716 1.127V8.86c0 .752.232 1.13.716 1.13.482 0 .714-.378.714-1.13zm5.539 5.781v-.887c-.596.673-1.165 1-1.711 1-.483 0-.816-.192-.965-.606-.083-.245-.133-.634-.133-1.21V3.079h1.494v5.992c0 .347 0 .527.018.573.033.229.15.346.35.346.3 0 .615-.23.947-.69V3.08h1.498v8.138z"/></g></g></svg>